<svg id="Layer_1" data-name="Layer 1" xmlns="http://www.w3.org/2000/svg" viewBox="0 0 125 40"><defs><style>.cls-1{fill:#0d416b;stroke:#ffca05;stroke-miterlimit:10;stroke-width:0.3px;}</style></defs><path class="cls-1" d="M28.93,28.5A9.39,9.39,0,0,0,26.3,28c-.92-.06-1.76-.11-2.45-.11h-14l1.62-6.92H28.2l.42-1.85H11.9l1.62-6.89H26.14c.94,0,2,0,3.07,0a14.21,14.21,0,0,0,3.23-.45,7.49,7.49,0,0,0,2.82-1.34,5,5,0,0,0,1.82-2.7L37.3,7l-.47.61A6.51,6.51,0,0,1,32,10.1c-2.07.17-4,.26-5.72.26H13.85a15.35,15.35,0,0,0-2,.11,4.77,4.77,0,0,0-2,.64,3.49,3.49,0,0,0-1.59,2.46c-.25,1.11-.45,2.06-.64,2.84L6.09,23c-.16.73-.42,1.76-.72,3A2.49,2.49,0,0,0,6.2,29a4.05,4.05,0,0,0,1.68.64,13,13,0,0,0,1.76.11H24a32.36,32.36,0,0,1,4.27.36,3.66,3.66,0,0,1,3.15,2.43l.23.56.05-.61A3.37,3.37,0,0,0,31,29.87,5.25,5.25,0,0,0,28.93,28.5Z"/><path class="cls-1" d="M119.68,16.52c.19-.89.08-1.5-.39-1.84a5.31,5.31,0,0,0-2.77-.47h-5.61a13.2,13.2,0,0,0-3.9.47,2.81,2.81,0,0,0-1.07,1.79l-1.56,6.73,0,.25c-.09.36-.2.7-.31,1.06a1.66,1.66,0,0,1-.7.81,8.32,8.32,0,0,1-3.91-2.18c-.86-.95-1.67-1.84-2.34-2.54h2a4.75,4.75,0,0,0,2-.45,2.71,2.71,0,0,0,1.2-1.81l.42-1.79a1.65,1.65,0,0,0-.47-1.87,6,6,0,0,0-2.94-.47H75.8l-.42,3.54.36-.83c.45-1.07.81-1.34,1.06-1.4a8.33,8.33,0,0,1,1.87-.14h2.46l-2,8.43a1.9,1.9,0,0,1-.53.92,3.57,3.57,0,0,1-1.53.76l-.17.05-.25-.05A9.63,9.63,0,0,1,73.12,24a17.27,17.27,0,0,1-2.26-2c-.62-.67-1.15-1.26-1.6-1.76a2.38,2.38,0,0,0-1.14-.75,4.67,4.67,0,0,0,1.34-.95c.47-.48,1-1,1.53-1.51a12.38,12.38,0,0,1,1.82-1.42,7.26,7.26,0,0,1,2.65-.95l0-.25H72.87a3.48,3.48,0,0,0-2.43.64,14,14,0,0,0-1.73,1.53,13.74,13.74,0,0,1-1.79,1.54,3.62,3.62,0,0,1-2.32.64c.09-.42.2-.81.28-1.23l.34-1.39a1.71,1.71,0,0,1,.69-.95,6.3,6.3,0,0,1,1.4-.76l.67-.25H46.54l.56.25a2.49,2.49,0,0,1,1,.73,1,1,0,0,1,.26.92l-1.79,7.76q-.3,1.17-2.07,1.68l-.64.16,1.87-2.51L45.54,23a6.47,6.47,0,0,1-1.46,1,4,4,0,0,1-1.22.53c-.45,0-1.15,0-2.12,0h-6l1.95-8.43c.17-.72.86-1.28,2.07-1.67l.78-.25H31.69l.7.25c1,.36,1.42.89,1.25,1.62l-1.78,7.76a1.71,1.71,0,0,1-.7.95,5,5,0,0,1-1.37.72l-.72.25H65.22l-.53-.25a3,3,0,0,1-1-.72,1,1,0,0,1-.22-.9l.84-3.62a3.3,3.3,0,0,1,2.37.75,12,12,0,0,1,1.87,1.9c.59.69,1.17,1.36,1.73,1.95a3,3,0,0,0,2.18.95c.81,0,1.53,0,2.09,0s1.29,0,2.1,0H84l-.59-.25a3.32,3.32,0,0,1-1.17-.75,1,1,0,0,1-.08-.87l2-8.48h2.54c1.37,0,1.78.22,1.9.39a5,5,0,0,1,.53,1.2l.14.45.69-3.13.31.17a4,4,0,0,1,.92.67,1,1,0,0,1,.36.95l-1.81,7.73a1.8,1.8,0,0,1-.75,1,4,4,0,0,1-1.32.67l-.89.25h8.07l-.87-.25a2,2,0,0,1-1-.67,1.13,1.13,0,0,1-.25-.95l.75-3.24A5,5,0,0,1,95,21.86c.51.58,1,1.14,1.46,1.7a10.51,10.51,0,0,0,1.47,1.51,2.82,2.82,0,0,0,1.88.67c.8,0,1.5,0,2.09,0s1.28,0,2.12,0h4.41l-.56-.25a1.3,1.3,0,0,1-.64-.48.5.5,0,0,1-.11-.39,4.81,4.81,0,0,1,.17-.89l.75-3.18h7.7L115,23.75a1.59,1.59,0,0,1-.81.95,11.68,11.68,0,0,1-1.28.73l-.51.25h6.79v-.14h0V25.4c-.23,0-.5-.19-.84-.56a1.11,1.11,0,0,1-.36-1.06ZM57.9,25.62,59.8,22l-.67,1a5.82,5.82,0,0,1-.89,1,2.42,2.42,0,0,1-1.37.51c-.45,0-1.17,0-2.12,0H49.39l1-4h4.74c.84,0,1.65,0,2.35.06l.75.06c.2,0,.34,0,.39,0h.11L59,19.26l-.17,0c-.5.05-1,.08-1.51.11H50.56l.95-4h5.42c.89,0,1.67,0,2.28.05.23,0,.42.25.56.73.25.78.37.86.48.86h.11L61,14.57a5.46,5.46,0,0,1,1,.73.84.84,0,0,1,.28.86l-1.78,7.76a1.9,1.9,0,0,1-.76,1,5,5,0,0,1-1.34.7Zm51.51-10.1a1.56,1.56,0,0,1,.92-.17h5.72c.56,0,.7.09.73.11s.08.17,0,.65L116,19.34h-7.7l.75-3.18a1.16,1.16,0,0,1,.37-.64ZM98.8,19.23a1.47,1.47,0,0,1-.9.17H93.72l1-4h4.24a1.5,1.5,0,0,1,.81.14c.06,0,.11.2,0,.61l-.59,2.49a1.07,1.07,0,0,1-.36.61Z"/></svg>