<?xml version="1.0" encoding="utf-8"?>
<!-- Generator: Adobe Illustrator 24.1.2, SVG Export Plug-In . SVG Version: 6.00 Build 0)  -->
<svg version="1.1" id="Layer_1" xmlns="http://www.w3.org/2000/svg" xmlns:xlink="http://www.w3.org/1999/xlink" x="0px" y="0px"
	 viewBox="401.981 501 276.038 80" enable-background="new 401.981 501 276.038 80" xml:space="preserve">
<g>
	<g>
		<polygon fill="#00AAE7" points="602.692,571.023 608.533,571.023 608.533,568.103 602.692,568.103 602.692,565.548 
			608.898,565.548 608.898,562.81 598.495,562.81 598.495,576.681 609.08,576.681 609.08,573.943 602.692,573.943 		"/>
		<polygon fill="#00AAE7" points="528.046,571.023 533.703,571.023 533.703,568.103 528.046,568.103 528.046,565.548 
			534.068,565.548 534.068,562.81 523.848,562.81 523.848,576.681 534.251,576.681 534.251,573.943 528.046,573.943 		"/>
		<polygon fill="#00AAE7" points="561.445,567.19 558.342,562.81 553.962,562.81 559.438,570.475 559.438,576.681 563.635,576.681 
			563.635,570.293 569.111,562.81 564.73,562.81 		"/>
		<path fill="#00AAE7" d="M550.677,569.38c-0.73-0.365-1.46-0.912-2.555-1.278c-0.547-0.365-1.095-0.548-1.278-0.73
			c-0.182-0.182-0.365-0.365-0.365-0.73s0.182-0.548,0.365-0.73c0.183-0.182,0.548-0.365,1.095-0.365c0.73,0,1.46,0.182,2.19,0.547
			c0.73,0.365,1.278,0.73,1.825,1.095v-3.285c-0.182-0.182-0.365-0.182-0.913-0.365c-0.365-0.183-0.912-0.365-1.643-0.548
			c-0.365-0.182-1.095-0.365-1.825-0.365c-1.095,0-2.008,0.182-2.737,0.547c-0.73,0.365-1.278,0.913-1.643,1.46
			s-0.548,1.277-0.548,2.008c0,0.73,0.183,1.46,0.548,2.008c0.365,0.547,0.912,1.095,1.46,1.46c0.548,0.365,1.278,0.73,2.008,1.095
			c0.73,0.182,1.278,0.547,1.643,0.73c0.365,0.182,0.547,0.547,0.547,0.912c0,0.183-0.182,0.365-0.365,0.73
			c-0.182,0.182-0.73,0.365-1.46,0.365c-0.73,0-1.46-0.183-2.19-0.365c-0.73-0.365-1.278-0.73-2.008-1.095v3.468
			c0.73,0.365,1.46,0.547,2.19,0.73c0.73,0.182,1.277,0.182,1.642,0.365c0.365,0,0.73,0,1.095,0c1.095,0,2.008-0.182,2.738-0.547
			c0.73-0.365,1.46-0.73,1.825-1.46c0.365-0.547,0.73-1.46,0.73-2.19c0-0.73-0.182-1.46-0.547-2.008
			C551.954,570.11,551.407,569.745,550.677,569.38z"/>
		<path fill="#00AAE7" d="M578.054,569.38c-0.548-0.365-1.46-0.912-2.555-1.278c-0.548-0.365-1.095-0.548-1.278-0.73
			s-0.365-0.365-0.365-0.73s0.182-0.548,0.365-0.73s0.547-0.365,1.095-0.365c0.73,0,1.46,0.182,2.19,0.547
			c0.73,0.365,1.278,0.73,1.825,1.095v-3.285c-0.183-0.182-0.365-0.182-0.913-0.365c-0.365-0.183-0.913-0.365-1.643-0.548
			c-0.73-0.182-1.277-0.182-2.19-0.182c-1.095,0-2.008,0.182-2.738,0.547c-0.73,0.365-1.278,0.913-1.643,1.46
			s-0.547,1.277-0.547,2.008c0,0.73,0.182,1.46,0.547,2.008c0.365,0.547,0.913,1.095,1.46,1.46c0.547,0.365,1.278,0.73,2.008,1.095
			c0.73,0.182,1.277,0.548,1.643,0.73c0.365,0.182,0.547,0.547,0.547,0.913c0,0.182-0.182,0.365-0.365,0.73
			c-0.182,0.183-0.73,0.365-1.46,0.365s-1.46-0.182-2.19-0.365c-0.73-0.365-1.278-0.73-2.008-1.095v3.468
			c0.73,0.365,1.46,0.547,2.19,0.73c0.73,0.182,1.278,0.182,1.643,0.365c0.365,0,0.73,0,1.095,0c1.095,0,2.008-0.182,2.738-0.547
			c0.73-0.365,1.46-0.73,1.825-1.46c0.365-0.547,0.73-1.46,0.73-2.19c0-0.73-0.182-1.46-0.547-2.008
			C579.148,570.11,578.601,569.745,578.054,569.38z"/>
		<path fill="#00AAE7" d="M640.472,570.658c-0.365-0.548-0.912-0.913-1.46-1.46c-0.73-0.365-1.46-0.912-2.555-1.278
			c-0.547-0.365-1.095-0.547-1.277-0.73s-0.365-0.365-0.365-0.73c0-0.365,0.182-0.548,0.365-0.73s0.547-0.365,1.095-0.365
			c0.73,0,1.46,0.182,2.19,0.547c0.73,0.365,1.278,0.73,1.825,1.095v-3.285c-0.182-0.182-0.365-0.182-0.912-0.365
			c-0.365-0.182-0.913-0.365-1.643-0.547c-0.73-0.182-1.278-0.182-2.19-0.182c-1.095,0-2.008,0.182-2.737,0.547
			c-0.73,0.365-1.278,0.913-1.643,1.46s-0.547,1.277-0.547,2.008c0,0.73,0.182,1.46,0.547,2.008c0.365,0.547,0.912,1.095,1.46,1.46
			c0.548,0.365,1.278,0.73,2.008,1.095c0.73,0.182,1.278,0.547,1.643,0.73c0.365,0.182,0.547,0.547,0.547,0.912
			c0,0.183-0.182,0.365-0.365,0.73c-0.182,0.182-0.73,0.365-1.46,0.365c-0.73,0-1.46-0.183-2.19-0.365
			c-0.73-0.365-1.278-0.73-2.008-1.095v3.468c0.73,0.365,1.46,0.547,2.19,0.73c0.73,0.182,1.278,0.182,1.643,0.365
			c0.365,0,0.73,0,1.095,0c1.095,0,2.008-0.182,2.738-0.547c0.73-0.365,1.46-0.73,1.825-1.46c0.365-0.547,0.73-1.46,0.73-2.19
			C641.019,571.935,640.837,571.205,640.472,570.658z"/>
		<path fill="#00AAE7" d="M417.627,569.38c-0.548-0.365-1.46-0.912-2.555-1.278c-0.547-0.365-1.095-0.548-1.277-0.73
			c-0.182-0.182-0.365-0.365-0.365-0.73s0.183-0.548,0.365-0.73c0.183-0.182,0.548-0.365,1.095-0.365c0.73,0,1.46,0.182,2.19,0.547
			c0.73,0.365,1.278,0.73,1.825,1.095v-3.285c-0.183-0.182-0.365-0.182-0.913-0.365c-0.365-0.183-0.913-0.365-1.643-0.548
			c-0.365-0.182-1.095-0.365-1.825-0.365c-1.095,0-2.008,0.182-2.738,0.547c-0.73,0.365-1.277,0.913-1.643,1.46
			c-0.365,0.547-0.548,1.277-0.548,2.008c0,0.73,0.183,1.46,0.548,2.008c0.365,0.547,0.913,1.095,1.46,1.46
			c0.548,0.365,1.277,0.73,2.008,1.095c0.73,0.182,1.277,0.547,1.643,0.73c0.365,0.182,0.548,0.547,0.548,0.912
			c0,0.183-0.182,0.365-0.365,0.73c-0.183,0.182-0.73,0.365-1.46,0.365c-0.73,0-1.46-0.183-2.19-0.365
			c-0.73-0.365-1.277-0.73-2.008-1.095v3.468c0.73,0.365,1.46,0.547,2.19,0.73c0.73,0.182,1.278,0.182,1.643,0.365
			c0.365,0,0.73,0,1.095,0c1.095,0,2.008-0.182,2.738-0.547c0.73-0.365,1.46-0.73,1.825-1.46c0.365-0.547,0.73-1.46,0.73-2.19
			c0-0.73-0.182-1.46-0.548-2.008C418.722,570.11,418.357,569.745,417.627,569.38z"/>
		<polygon fill="#00AAE7" points="581.886,566.278 586.814,566.278 586.814,576.681 591.012,576.681 591.012,566.278 
			596.122,566.278 596.122,562.81 581.886,562.81 		"/>
		<polygon fill="#00AAE7" points="619.848,568.103 615.651,562.81 611.818,562.81 611.818,576.681 615.833,576.681 615.833,568.65 
			619.666,573.396 620.031,573.396 623.681,568.65 623.681,576.681 627.879,576.681 627.879,562.81 624.046,562.81 		"/>
		<polygon fill="#00AAE7" points="451.574,566.278 456.684,566.278 456.684,576.681 460.882,576.681 460.882,566.278 
			465.992,566.278 465.992,562.81 451.574,562.81 		"/>
		<polygon fill="#00AAE7" points="439.893,576.681 444.091,576.681 444.091,571.023 449.931,571.023 449.931,568.285 
			444.091,568.285 444.091,565.548 449.931,565.548 449.931,562.81 439.893,562.81 		"/>
		<path fill="#00AAE7" d="M435.33,564.818c-0.73-0.73-1.46-1.095-2.555-1.46c-0.912-0.548-2.008-0.73-3.285-0.73
			c-1.643,0-3.103,0.365-4.38,0.913c-1.278,0.73-2.008,1.46-2.555,2.555c-0.548,1.278-0.913,2.373-0.913,3.65
			c0,1.278,0.365,2.373,0.913,3.468c0.548,1.095,1.46,2.008,2.555,2.555c1.095,0.73,2.555,0.912,4.38,0.912
			c1.642,0,3.103-0.365,4.38-0.912c1.095-0.548,2.007-1.46,2.738-2.555c0.548-1.095,0.913-2.19,0.913-3.65
			c0-0.912-0.182-1.825-0.548-2.738C436.426,566.095,436.06,565.365,435.33,564.818z M432.593,571.57
			c-0.365,0.548-0.73,0.913-1.278,1.278c-0.548,0.365-1.277,0.365-2.008,0.365c-1.095,0-2.008-0.365-2.555-0.913
			c-0.73-0.73-0.913-1.46-0.913-2.555c0-1.095,0.365-1.825,0.913-2.555c0.73-0.73,1.46-0.912,2.555-0.912
			c0.548,0,1.095,0,1.46,0.182s0.913,0.365,1.095,0.73c0.365,0.365,0.547,0.73,0.73,1.095c0.182,0.365,0.182,0.912,0.182,1.46
			C433.14,570.475,432.958,571.023,432.593,571.57z"/>
		<polygon fill="#00AAE7" points="486.433,562.81 483.513,570.475 480.228,562.81 477.308,562.81 474.023,570.475 471.102,562.81 
			466.722,562.81 472.563,576.863 475.118,576.863 478.768,568.65 482.418,576.863 484.791,576.863 490.814,562.81 		"/>
		<path fill="#00AAE7" d="M495.924,562.81l-6.205,13.871h4.198l1.095-2.737h6.023l1.095,2.737h4.198l-6.023-13.871H495.924z
			 M496.289,571.57l2.008-5.11l2.008,5.11H496.289z"/>
		<path fill="#00AAE7" d="M519.285,571.57c-0.365-0.365-0.73-0.73-1.095-0.912c0.365-0.182,0.73-0.365,1.095-0.548
			c0.365-0.182,0.547-0.547,0.912-1.095c0.182-0.547,0.365-1.095,0.365-1.825c0-0.547-0.182-1.278-0.547-1.825
			c-0.365-0.73-0.912-1.277-1.643-1.643c-0.73-0.547-1.643-0.73-2.738-0.73h-7.118v13.871h4.198v-5.475h0.547
			c0.548,0,0.913,0,1.095,0.182c0.365,0.182,0.547,0.365,0.912,0.73c0.365,0.365,0.73,1.095,1.095,2.008l1.095,2.372h4.563
			l-1.46-2.92C520.015,572.666,519.65,571.935,519.285,571.57z M515.635,568.468c-0.365,0.182-1.095,0.365-2.008,0.365h-0.912
			v-3.285h0.912c0.913,0,1.643,0.182,2.008,0.365c0.365,0.182,0.547,0.73,0.547,1.278C516.182,567.92,516,568.285,515.635,568.468z"
			/>
	</g>
	<g>
		<path fill="#FFFFFF" d="M451.026,520.103c-2.92,0-5.658,0-8.578,0c-0.548,0-0.913,0.183-1.277,0.73
			c-3.103,3.833-6.388,7.666-9.491,11.498c-0.548,0.547-0.73,0.547-1.278,0c-3.103-3.833-6.205-7.666-9.308-11.498
			c-0.365-0.547-0.73-0.73-1.46-0.73c-2.738,0-5.475,0-8.213,0c-1.278,0-1.643,0.365-1.643,1.825c0,11.133,0,22.449,0,33.582
			c0,1.278,0.365,1.825,1.643,1.825c2.738,0,5.658,0,8.396,0c1.278,0,1.825-0.365,1.825-1.642c0-5.475,0-10.768,0-16.244
			c0-0.365,0-0.547,0.182-0.912c0.365,0.182,0.365,0.365,0.548,0.547c2.373,2.92,4.745,5.841,7.3,8.76
			c0.913,1.095,1.825,1.095,2.738,0c0.912-1.095,1.825-2.19,2.738-3.285c1.643-2.008,3.285-4.015,4.928-6.023h0.183
			c0,0.365,0,0.547,0,0.912c0,5.476,0,10.768,0,16.244c0,1.095,0.365,1.642,1.643,1.642c3.103,0,6.023,0,9.126,0
			c1.095,0,1.46-0.547,1.46-1.46c0-11.316,0-22.631,0-34.129C452.486,520.65,451.939,520.103,451.026,520.103z"/>
		<path fill="#FFFFFF" d="M512.897,544.742c-0.73-1.278-1.46-2.373-2.555-3.285c-0.548-0.547-0.365-0.73,0.182-1.095
			c2.008-1.278,3.285-2.92,3.833-5.111c1.825-6.023-1.825-12.958-8.761-14.601c-1.642-0.365-3.285-0.365-4.928-0.548
			c-5.475,0-10.768,0-16.243,0c-1.46,0-1.825,0.365-1.825,1.825c0,5.658,0,11.133,0,16.791s0,11.316,0,16.791
			c0,1.278,0.365,1.643,1.643,1.643c2.92,0,6.023,0,8.943,0c1.095,0,1.643-0.365,1.643-1.643c0-1.825,0-3.65,0-5.475
			c0-2.008,0-3.833,0-5.841c0-0.365,0-0.912,0.548-0.912c1.642,0,3.103,0.182,4.198,1.643c1.095,1.277,1.825,2.737,2.555,4.198
			c1.095,2.373,2.19,4.928,3.285,7.301c0.182,0.365,0.365,0.73,0.913,0.73c3.65,0,7.118,0,10.768,0c0.913,0,1.46-0.912,1.095-1.643
			C516.365,552.042,514.722,548.392,512.897,544.742z M501.582,534.338c-0.547,0.547-1.095,0.73-1.825,0.912
			c-1.46,0.365-2.92,0.183-4.38,0.183c-0.548,0-0.73-0.183-0.73-0.73c0-0.912,0-1.825,0-2.738c0-0.912,0-1.825,0-2.555
			c0-0.365,0.182-0.73,0.73-0.73c1.46,0,3.103,0,4.563,0.365C502.129,529.593,503.042,532.513,501.582,534.338z"/>
		<path fill="#FFFFFF" d="M558.342,544.742c-3.468-7.848-6.935-15.696-10.403-23.544c-0.365-0.73-0.73-1.095-1.46-1.095
			c-3.468,0-7.118,0-10.586,0c-0.73,0-1.095,0.183-1.46,0.913c-1.46,3.468-3.102,6.935-4.563,10.403
			c-3.468,8.03-6.935,15.878-10.586,23.726c-0.548,1.278,0,2.008,1.277,2.008c3.285,0,6.388,0,9.673,0
			c0.73,0,1.095-0.182,1.278-0.912c0.73-1.825,1.46-3.65,2.19-5.475c0.182-0.548,0.547-0.913,1.277-0.913c2.008,0,4.198,0,6.206,0
			c2.19,0,4.198,0,6.388,0c0.73,0,1.095,0.182,1.277,0.913c0.73,1.825,1.46,3.65,2.19,5.475c0.183,0.547,0.548,0.73,1.095,0.73
			c3.285,0,6.57,0,9.856,0c1.278,0,1.643-0.73,1.278-1.825C561.445,551.859,559.985,548.209,558.342,544.742z M543.376,542.369
			c-1.825,0-3.468,0-5.293,0c-0.73,0-0.73-0.182-0.547-0.913c1.095-2.92,2.372-5.658,3.468-8.578c0-0.182,0.183-0.182,0.183-0.365
			c1.095,2.92,2.19,5.475,3.285,8.213C545.202,542.369,545.202,542.369,543.376,542.369z"/>
		<path fill="#FFFFFF" d="M668.579,548.392c-4.38,0-8.761,0-12.958,0c-0.912,0-1.095-0.182-1.095-1.095c0-1.278,0-2.372,0-3.65
			c0-1.095,0-1.095,1.277-1.095c4.015,0,8.031,0,12.046,0c1.278,0,1.643-0.365,1.643-1.643c0-1.643,0-3.468,0-5.11
			c0-1.825-0.182-2.008-2.008-2.008c-3.833,0-7.666,0-11.498,0c-1.277,0-1.277,0-1.277-1.095c0-0.73,0-1.278,0-2.008
			c0-1.643-0.182-1.643,1.46-1.643c4.015,0,8.213,0,12.228,0c1.277,0,1.825-0.547,1.825-1.825c0-1.825,0-3.468,0-5.293
			c0-1.278-0.548-1.825-1.825-1.825c-8.031,0-16.243,0-24.274,0c-1.46,0-1.825,0.365-1.825,1.825c0,5.658,0,11.133,0,16.791
			s0,11.316,0,16.974c0,1.095,0.365,1.642,1.46,1.642c8.396,0,16.791,0,25.186,0c1.095,0,1.46-0.547,1.46-1.46
			c0-1.825,0-3.65,0-5.293C670.404,548.757,670.221,548.392,668.579,548.392z"/>
		<path fill="#FFFFFF" d="M600.502,545.654c0-1.278-0.913-1.825-2.008-1.095c-2.19,1.277-4.563,2.372-7.118,2.92
			c-2.738,0.547-5.293,0.73-8.031-0.365c-3.468-1.278-5.84-3.833-6.023-7.666c-0.365-3.833,1.643-6.935,5.293-8.578
			c3.468-1.643,6.935-1.643,10.403-0.548c2.007,0.548,3.65,1.643,5.475,2.555c0.913,0.547,1.825,0,1.825-1.095
			c0-1.46,0-2.92,0-4.198s0-2.555,0-3.833c0-0.912-0.365-1.277-1.095-1.46c-1.278-0.365-2.555-0.913-3.833-1.095
			c-5.658-1.46-11.498-2.008-17.338-0.182c-5.476,1.643-9.673,4.928-11.863,10.403c-1.277,3.103-1.46,6.388-1.095,9.856
			c0.73,6.935,4.38,11.863,10.768,14.783c3.103,1.46,6.206,1.825,9.673,1.825c4.928,0,9.856-0.73,14.236-2.92
			c0.73-0.365,0.913-0.73,0.913-1.46C600.502,550.764,600.502,548.209,600.502,545.654z"/>
		<path fill="#FFFFFF" d="M634.267,547.114c-4.38,0-8.578,0-12.958,0c-1.278,0-1.278,0-1.46-1.278c0-8.03,0-15.878,0-23.909
			c0-1.278-0.365-1.643-1.643-1.643c-2.92,0-5.84,0-8.943,0c-1.278,0-1.643,0.365-1.643,1.825c0,5.658,0,11.133,0,16.791
			c0,5.658,0,11.316,0,16.974c0,1.095,0.365,1.642,1.46,1.642c8.396,0,16.791,0,25.369,0c1.095,0,1.643-0.365,1.643-1.46
			c0-2.19,0-4.563,0-6.753C636.092,547.479,635.727,547.114,634.267,547.114z"/>
		<path fill="#FFFFFF" d="M472.015,520.103c-2.92,0-5.84,0-8.761,0c-1.46,0-1.825,0.365-1.825,1.825c0,5.475,0,11.133,0,16.608
			c0,5.658,0,11.316,0,16.791c0,1.278,0.365,1.825,1.643,1.825c2.92,0,5.84,0,8.761,0c1.277,0,1.643-0.547,1.643-1.643
			c0-11.316,0-22.449,0-33.764C473.658,520.65,473.11,520.103,472.015,520.103z"/>
		<path fill="#FFFFFF" d="M467.27,517.183c3.468,0,6.205-2.738,6.205-6.206c0-3.468-2.738-6.205-6.205-6.205
			c-3.468,0-6.205,2.738-6.205,6.205C461.064,514.445,463.802,517.183,467.27,517.183z"/>
	</g>
</g>
</svg>
